<svg xmlns="http://www.w3.org/2000/svg" viewBox="0 0 388.79 14.21">
    <defs>
        <linearGradient id="MyGradient">
            <stop offset="5%"  stop-color="#beff7f"/>
            <stop offset="95%" stop-color="#4c9f42"/>
        </linearGradient>
    </defs>
    <title>menu4_right</title>
            <path fill="url(#MyGradient)" d="M0,8.21C3.77,6,8.13,8.28,11.75,6c-.56-1.22-1.65-.71-2.44-.67-1.16.06-2.29.42-3.45.54a11.38,11.38,0,0,1-3,0A4,4,0,0,1,.09,3.79c4.41-.53,8.82-1,13.23-1.61C31.78-.18,50.27,3,68.7,2,95,.62,121.39.07,147.63,1.57c26.49,1.53,53,2.07,79.4,1.26,18.1-.55,36.2-2.75,54.31-2.37C297.15.8,313,1.66,328.78,1c12-.54,23.9-1.25,35.9.07A65.55,65.55,0,0,0,381.61.25c3.13-.48,6.62-.77,7.13,3.93s-2.37,8.88-6.53,9c-7.16.18-14.37.53-21.48-.1a199.52,199.52,0,0,0-34.91,0c-13.51,1.16-27-.66-40.44-.95-28.68-.6-57.25,2.13-85.9,2.07-27.31-.05-54.51-2.81-81.78-3.74-12-.41-24,.13-35.95.67-17,.77-33.91-1.19-50.82-2.72-8.52-.78-16.95.93-25.44.75C3.77,9.13,1.89,9.81,0,8.21Z"/>
</svg>