<svg xmlns="http://www.w3.org/2000/svg" viewBox="0 0 388.22 14.12">
    <defs>
        <linearGradient id="MyGradient">
            <stop offset="5%"  stop-color="#4c9f42"/>
            <stop offset="95%" stop-color="#beff7f"/>
        </linearGradient>
    </defs>
    <title>menu4_left</title>
            <path fill="url(#MyGradient)" d="M388,4.71c-3.75,2.48-7.52.57-11.33,1,1.55,1.55,3.59,1.25,5.52,1.38s4-.44,6,1.27c-1.53,1.25-3.2.75-4.69.77-44.79.54-89.57,1.81-134.35,2.57-28.26.48-56.53,3.23-84.83,2.2-22.13-.81-44.25-2.51-66.4-1.5C86,12.93,73.94,14,62,13c-18-1.54-35.94.87-53.91.33C4,13.22,1.44,12,.41,7.89-1,2.24,1.27-.29,7.1.4a104.21,104.21,0,0,0,26.41,0C40.2-.55,46.81.47,53.45.9A388.49,388.49,0,0,0,98.85,1c28-1.47,55.88,2,83.86,2.32C220,3.72,257.27-.52,294.59,1.15c17.32.77,34.63,1.28,51.94.72,9.5-.31,19,.58,28.41.19C379.56,1.88,383.56,4.28,388,4.71Z"/>
</svg>